<svg width="49" height="39" viewBox="0 0 49 39" fill="none" xmlns="http://www.w3.org/2000/svg">
<path d="M45.0374 4.5418H27.3664L23.8463 0.372979C23.7301 0.235192 23.5589 0.155989 23.3786 0.156744H9.13218C6.94368 0.156744 5.16954 1.93088 5.16954 4.11939V5.276H3.96264C1.77615 5.276 0.0027658 7.04712 0 9.23361V34.8802C0 37.0687 1.77414 38.8428 3.96264 38.8428H39.8678C42.0563 38.8428 43.8305 37.0687 43.8305 34.8802V33.7236H45.0374C47.2259 33.7236 49 31.9494 49 29.7609V8.50444C49 6.31594 47.2259 4.5418 45.0374 4.5418ZM42.6034 32.5317V34.9053C42.6007 36.4178 41.3753 37.6432 39.8628 37.646H3.96264C2.45013 37.6432 1.22475 36.4178 1.22198 34.9053V9.25875C1.22475 7.74624 2.45013 6.52086 3.96264 6.51809H17.9626L21.4828 10.6869C21.5989 10.8247 21.7702 10.9039 21.9504 10.9032H39.903C41.392 10.9277 42.59 12.1346 42.6034 13.6237V32.5317ZM47.773 29.7911C47.7702 31.3036 46.5448 32.529 45.0323 32.5317H43.8254V13.6237C43.8254 11.4352 42.0513 9.66105 39.8628 9.66105H22.1968L18.6767 5.49223C18.5606 5.35444 18.3893 5.27524 18.2091 5.276H6.39655V4.11939C6.39932 2.60687 7.62469 1.38149 9.13721 1.37873H23.1171L26.6372 5.54755C26.7534 5.68534 26.9246 5.76454 27.1049 5.76378H45.0575C46.57 5.76655 47.7954 6.99193 47.7981 8.50444L47.773 29.7911Z" fill="black"/>
</svg>
