<svg width="49" height="47" viewBox="0 0 49 47" fill="none" xmlns="http://www.w3.org/2000/svg">
<path d="M24.5 0.0209961C10.9637 0.0209961 0 10.801 0 24.0963C0 34.7355 7.01925 43.7576 16.7519 46.9385C17.9769 47.1651 18.426 46.4199 18.426 45.7809C18.426 45.2092 18.4056 43.6943 18.3954 41.6873C11.5803 43.139 10.143 38.4574 10.143 38.4574C9.02825 35.6787 7.41738 34.9355 7.41738 34.9355C5.19808 33.4431 7.58888 33.4737 7.58888 33.4737C10.0491 33.6411 11.3415 35.9543 11.3415 35.9543C13.526 39.6355 17.0765 38.5718 18.4771 37.9572C18.6976 36.3994 19.3285 35.3398 20.0288 34.7375C14.5877 34.1352 8.869 32.065 8.869 22.8407C8.869 20.2131 9.81838 18.0652 11.3905 16.3809C11.1148 15.7725 10.288 13.3245 11.6048 10.0088C11.6048 10.0088 13.6567 9.36366 18.3423 12.4772C20.3023 11.9423 22.3848 11.6769 24.4673 11.6646C26.5498 11.6769 28.6323 11.9423 30.5923 12.4772C35.2473 9.36366 37.2992 10.0088 37.2992 10.0088C38.6161 13.3245 37.7892 15.7725 37.5442 16.3809C39.1061 18.0652 40.0555 20.2131 40.0555 22.8407C40.0555 32.0895 34.3286 34.125 28.8773 34.7171C29.7348 35.4398 30.5311 36.916 30.5311 39.172C30.5311 42.3938 30.5005 44.9826 30.5005 45.7645C30.5005 46.3954 30.9292 47.1488 32.1848 46.9079C41.9869 43.7474 49 34.7191 49 24.0963C49 10.801 38.0301 0.0209961 24.5 0.0209961Z" fill="#FCBDB7"/>
</svg>
