<svg width="49" height="49" viewBox="0 0 49 49" fill="none" xmlns="http://www.w3.org/2000/svg">
<path d="M29.1895 24.5C29.1895 27.09 27.09 29.1895 24.5 29.1895C21.91 29.1895 19.8105 27.09 19.8105 24.5C19.8105 21.91 21.91 19.8105 24.5 19.8105C27.09 19.8105 29.1895 21.91 29.1895 24.5Z" fill="#FAB7B5"/>
<path d="M35.467 16.2031C35.2416 15.5923 34.882 15.0394 34.4146 14.5855C33.9608 14.1182 33.4083 13.7586 32.797 13.5332C32.3013 13.3406 31.5566 13.1115 30.185 13.049C28.7012 12.9814 28.2564 12.9668 24.5 12.9668C20.7433 12.9668 20.2984 12.981 18.815 13.0487C17.4434 13.1115 16.6984 13.3406 16.203 13.5332C15.5918 13.7586 15.0389 14.1182 14.5854 14.5855C14.1181 15.0394 13.7585 15.5919 13.5327 16.2031C13.3401 16.6988 13.111 17.4439 13.0486 18.8155C12.9809 20.2989 12.9663 20.7438 12.9663 24.5005C12.9663 28.2569 12.9809 28.7017 13.0486 30.1855C13.111 31.5571 13.3401 32.3018 13.5327 32.7975C13.7585 33.4088 14.1177 33.9613 14.585 34.4151C15.0389 34.8824 15.5914 35.2421 16.2026 35.4675C16.6984 35.6604 17.4434 35.8896 18.815 35.952C20.2984 36.0197 20.7429 36.0339 24.4997 36.0339C28.2568 36.0339 28.7016 36.0197 30.1846 35.952C31.5563 35.8896 32.3013 35.6604 32.797 35.4675C34.024 34.9942 34.9937 34.0245 35.467 32.7975C35.6595 32.3018 35.8887 31.5571 35.9515 30.1855C36.0192 28.7017 36.0334 28.2569 36.0334 24.5005C36.0334 20.7438 36.0192 20.2989 35.9515 18.8155C35.8891 17.4439 35.6599 16.6988 35.467 16.2031ZM24.5 31.7242C20.51 31.7242 17.2756 28.4901 17.2756 24.5001C17.2756 20.5101 20.51 17.2761 24.5 17.2761C28.4897 17.2761 31.7241 20.5101 31.7241 24.5001C31.7241 28.4901 28.4897 31.7242 24.5 31.7242ZM32.0097 18.6787C31.0774 18.6787 30.3215 17.9228 30.3215 16.9904C30.3215 16.0581 31.0774 15.3022 32.0097 15.3022C32.9421 15.3022 33.698 16.0581 33.698 16.9904C33.6976 17.9228 32.9421 18.6787 32.0097 18.6787Z" fill="#FAB7B5"/>
<path d="M24.5 0C10.9711 0 0 10.9711 0 24.5C0 38.0289 10.9711 49 24.5 49C38.0289 49 49 38.0289 49 24.5C49 10.9711 38.0289 0 24.5 0ZM38.4835 30.3001C38.4155 31.7977 38.1773 32.8202 37.8297 33.7152C37.0988 35.6049 35.6049 37.0988 33.7152 37.8297C32.8206 38.1773 31.7977 38.4151 30.3005 38.4835C28.8003 38.5519 28.321 38.5684 24.5004 38.5684C20.6794 38.5684 20.2005 38.5519 18.6999 38.4835C17.2026 38.4151 16.1798 38.1773 15.2852 37.8297C14.3461 37.4764 13.496 36.9227 12.7932 36.2068C12.0777 35.5044 11.524 34.6539 11.1707 33.7152C10.8231 32.8206 10.5849 31.7977 10.5169 30.3005C10.4477 28.7999 10.4316 28.3206 10.4316 24.5C10.4316 20.6794 10.4477 20.2001 10.5165 18.6999C10.5845 17.2023 10.8223 16.1798 11.17 15.2848C11.5233 14.3461 12.0773 13.4956 12.7932 12.7932C13.4956 12.0773 14.3461 11.5236 15.2848 11.1703C16.1798 10.8227 17.2023 10.5849 18.6999 10.5165C20.2001 10.4481 20.6794 10.4316 24.5 10.4316C28.3206 10.4316 28.7999 10.4481 30.3001 10.5169C31.7977 10.5849 32.8202 10.8227 33.7152 11.17C34.6539 11.5233 35.5044 12.0773 36.2072 12.7932C36.9227 13.496 37.4767 14.3461 37.8297 15.2848C38.1777 16.1798 38.4155 17.2023 38.4839 18.6999C38.5523 20.2001 38.5684 20.6794 38.5684 24.5C38.5684 28.3206 38.5523 28.7999 38.4835 30.3001Z" fill="#FAB7B5"/>
</svg>
