<svg width="49" height="49" viewBox="0 0 49 49" fill="none" xmlns="http://www.w3.org/2000/svg">
<g clip-path="url(#clip0)">
<path d="M48.9877 48.9998V48.9978H49V31.027C49 22.2356 47.1073 15.4634 36.8296 15.4634C31.8888 15.4634 28.5731 18.1747 27.2195 20.7452H27.0765V16.2841H17.3317V48.9978H27.4788V32.7992C27.4788 28.5341 28.2873 24.41 33.569 24.41C38.7733 24.41 38.8508 29.2773 38.8508 33.0728V48.9998H48.9877Z" fill="#F9B6B5"/>
<path d="M0.808472 16.2861H10.9678V48.9997H0.808472V16.2861Z" fill="#F9B6B5"/>
<path d="M5.88408 0C2.63579 0 0 2.63579 0 5.88408C0 9.13237 2.63579 11.8233 5.88408 11.8233C9.13237 11.8233 11.7682 9.13237 11.7682 5.88408C11.7661 2.63579 9.13033 0 5.88408 0V0Z" fill="#F9B6B5"/>
</g>
<defs>
<clipPath id="clip0">
<rect width="49" height="49" fill="white"/>
</clipPath>
</defs>
</svg>
