<svg width="88" height="116" viewBox="0 0 88 116" fill="none" xmlns="http://www.w3.org/2000/svg">
<g opacity="0.99">
<path opacity="0.99" d="M51.14 115.85H0.410034V42.8699H51.14C71.2607 42.8699 87.63 59.2392 87.63 79.3599C87.63 99.4805 71.2607 115.85 51.14 115.85ZM15.54 100.72H51.14C56.8051 100.72 62.2381 98.4694 66.2438 94.4637C70.2496 90.4579 72.5 85.0249 72.5 79.3599C72.5 73.6948 70.2496 68.2618 66.2438 64.2561C62.2381 60.2503 56.8051 57.9999 51.14 57.9999H15.54V100.72Z" fill="url(#paint0_linear)"/>
</g>
<path d="M55.7169 58.4962C58.5472 59.1212 61.2211 60.3144 63.5767 62.0033C65.9322 63.6922 67.9204 65.8418 69.4207 68.3218C72.8205 65.16 76.9122 60.1671 79.3531 56.2445C77.0854 53.4808 74.4267 51.0627 71.461 49.0666C69.9725 48.4725 68.4417 47.9185 66.8998 47.3267C64.6792 52.303 60.6959 56.2816 55.7169 58.4962Z" fill="#A66894"/>
<path d="M15.54 42.8699V15.2799H44.6875C50.3526 15.2799 55.7856 17.5303 59.7913 21.5361C63.7971 25.5419 66.0475 30.9749 66.0475 36.6399C66.0475 42.3049 63.7971 47.7379 59.7913 51.7437C55.7856 55.7495 50.3526 57.9999 44.6875 57.9999H15.54V73.1299H44.6875C64.8082 73.1299 81.1775 56.7606 81.1775 36.6399C81.1775 16.5192 64.8082 0.149902 44.6875 0.149902H0.410034V42.8699" fill="url(#paint1_linear)"/>
<path d="M15.54 73.13V58H46.245L15.54 73.13Z" fill="#D1799A"/>
<path d="M15.54 42.8699H0.410034V73.1299H15.54V42.8699Z" fill="#79578A" fill-opacity="0.6"/>
<defs>
<linearGradient id="paint0_linear" x1="-1.37887" y1="114.061" x2="68.0211" y2="44.6588" gradientUnits="userSpaceOnUse">
<stop stop-color="#4E4F95"/>
<stop offset="1" stop-color="#D186AB"/>
</linearGradient>
<linearGradient id="paint1_linear" x1="4.57301" y1="62.1629" x2="63.1818" y2="3.55194" gradientUnits="userSpaceOnUse">
<stop stop-color="#E781A6"/>
<stop offset="1" stop-color="#FFC6BA"/>
</linearGradient>
</defs>
</svg>
