<svg width="30" height="30" viewBox="0 0 30 30" fill="none" xmlns="http://www.w3.org/2000/svg">
<g clip-path="url(#clip0)">
<path d="M28.6363 0H17.7272C16.9741 0 16.3636 0.610547 16.3636 1.36365C16.3636 2.11676 16.9741 2.7273 17.7272 2.7273H25.3443L11.3085 16.7631C10.776 17.2956 10.776 18.159 11.3085 18.6915C11.5747 18.9578 11.9237 19.0909 12.2727 19.0909C12.6217 19.0909 12.9707 18.9578 13.237 18.6915L27.2728 4.65574V12.2728C27.2728 13.0259 27.8833 13.6364 28.6364 13.6364C29.3895 13.6364 30.0001 13.0259 30.0001 12.2728V1.36365C30 0.610547 29.3895 0 28.6363 0Z" fill="#0F0A4A"/>
<path d="M23.1818 13.6364C22.4287 13.6364 21.8181 14.2469 21.8181 15V27.2728H2.72725V8.18184H15C15.7531 8.18184 16.3637 7.57129 16.3637 6.81818C16.3637 6.06508 15.7531 5.45459 15 5.45459H1.36365C0.610547 5.45459 0 6.06514 0 6.81824V28.6364C0 29.3895 0.610547 30 1.36365 30H23.1819C23.935 30 24.5455 29.3895 24.5455 28.6364V15C24.5455 14.2469 23.9349 13.6364 23.1818 13.6364Z" fill="#0F0A4A"/>
</g>
<defs>
<clipPath id="clip0">
<rect width="30" height="30" fill="white"/>
</clipPath>
</defs>
</svg>
