<svg width="49" height="41" viewBox="0 0 49 41" fill="none" xmlns="http://www.w3.org/2000/svg">
<path d="M49 5.30694C47.1778 6.10625 45.2362 6.63606 43.2119 6.89331C45.2944 5.64994 46.8838 3.69606 47.6311 1.341C45.6894 2.49862 43.5457 3.31631 41.2611 3.77263C39.4174 1.80956 36.7898 0.59375 33.9233 0.59375C28.3618 0.59375 23.8844 5.10788 23.8844 10.6418C23.8844 11.4381 23.9518 12.2037 24.1172 12.9326C15.7657 12.5252 8.37594 8.52256 3.41162 2.42513C2.54494 3.92881 2.03656 5.64994 2.03656 7.50275C2.03656 10.9818 3.82812 14.0657 6.49862 15.8511C4.88469 15.8205 3.30137 15.3519 1.96 14.6139C1.96 14.6445 1.96 14.6843 1.96 14.7241C1.96 19.6057 5.44206 23.6605 10.0082 24.5946C9.19056 24.8181 8.29937 24.9253 7.3745 24.9253C6.73138 24.9253 6.08212 24.8886 5.47269 24.7538C6.77425 28.732 10.4676 31.6567 14.8593 31.7516C11.4415 34.4252 7.10194 36.0361 2.40406 36.0361C1.58025 36.0361 0.790125 35.9993 0 35.8983C4.44981 38.7678 9.72344 40.4062 15.4105 40.4062C33.8957 40.4062 44.002 25.0938 44.002 11.8209C44.002 11.3768 43.9867 10.9481 43.9652 10.5224C45.9589 9.1075 47.6341 7.34044 49 5.30694Z" fill="#FAB9B6"/>
</svg>
